<svg version="1.1" id="Слой_1" xmlns="http://www.w3.org/2000/svg" xmlns:xlink="http://www.w3.org/1999/xlink" x="0px" y="0px" viewBox="0 0 80 80" style="enable-background:new 0 0 80 80;" xml:space="preserve">
<g>
	<path style="fill:#BAE0BD;" d="M73.5,73.13c-19.183-10.854-61.888-11.58-67-11.627V26.5h67V73.13z"></path>
	<path style="fill:#5E9C76;" d="M73,27v45.283C53.705,61.911,13.998,61.072,7,61.006V27h4.813H73 M74,26c0,0-44.593,0-62.187,0
		C7.606,26,6,26,6,26v36c0,0,48,0,68,12V26L74,26z"></path>
</g>
<g>
	<path style="fill:#BAE0BD;" d="M75.5,63.374c-24.395-5.476-65.969-5.847-71-5.872V14.5h71V63.374z"></path>
	<path style="fill:#5E9C76;" d="M75,15v47.751c-23.84-5.209-63.236-5.7-70-5.746V15h1.335H75 M76,14c0,0-55.248,0-69.665,0
		C4.215,14,4,14,4,14v44c0,0,46,0,72,6C76,59.5,76,14,76,14L76,14z"></path>
</g>
<g>
	<rect x="2.5" y="10.5" style="fill:#BAE0BD;" width="75" height="43"></rect>
	<g>
		<path style="fill:#5E9C76;" d="M77,11v42H3V11H77 M78,10H2v44h76V10L78,10z"></path>
	</g>
</g>
<g>
	<path style="fill:#FFFFFF;" d="M40,47.5c-8.547,0-15.5-6.953-15.5-15.5S31.453,16.5,40,16.5S55.5,23.453,55.5,32
		S48.547,47.5,40,47.5z"></path>
	<g>
		<path style="fill:#5E9C76;" d="M40,17c8.271,0,15,6.729,15,15s-6.729,15-15,15s-15-6.729-15-15S31.729,17,40,17 M40,16
			c-8.837,0-16,7.163-16,16s7.163,16,16,16s16-7.163,16-16S48.837,16,40,16L40,16z"></path>
	</g>
</g>
<g>
	<circle style="fill:#FFFFFF;" cx="66" cy="32" r="5.5"></circle>
	<g>
		<path style="fill:#5E9C76;" d="M66,27c2.757,0,5,2.243,5,5s-2.243,5-5,5s-5-2.243-5-5S63.243,27,66,27 M66,26
			c-3.314,0-6,2.686-6,6s2.686,6,6,6s6-2.686,6-6S69.314,26,66,26L66,26z"></path>
	</g>
</g>
<g>
	<circle style="fill:#FFFFFF;" cx="14" cy="32" r="5.5"></circle>
	<g>
		<path style="fill:#5E9C76;" d="M14,27c2.757,0,5,2.243,5,5s-2.243,5-5,5s-5-2.243-5-5S11.243,27,14,27 M14,26
			c-3.314,0-6,2.686-6,6s2.686,6,6,6s6-2.686,6-6S17.314,26,14,26L14,26z"></path>
	</g>
</g>
</svg>